<?xml version="1.0" encoding="UTF-8" standalone="no"?>
<svg
   version="1.1"
   width="500"
   height="500"
   id="svg208"
   viewBox="0 0 374.99999 375.00001"
   xmlns="http://www.w3.org/2000/svg"
   xmlns:svg="http://www.w3.org/2000/svg">
  <defs
     id="defs212" />
  <g
     id="g4678"
     transform="matrix(1.0045857,0,0,1.0045857,-111.29976,-101.09196)">
    <path
       d="m 297.4352,121.0513 c 92.9795,0 168.3537,75.3742 168.3537,168.3531 0,92.9789 -75.3742,168.3531 -168.3537,168.3531 -92.9789,0 -168.3525,-75.3742 -168.3525,-168.3531 0,-92.9789 75.3736,-168.3531 168.3525,-168.3531 z"
       style="display:inline;fill:#050f41;fill-rule:evenodd"
       id="path192" />
    <path
       d="m 297.4365,100.6305 c -103.0815,0 -186.6448,83.5633 -186.6448,186.6444 0,103.0805 83.5633,186.6438 186.6448,186.6438 103.0801,0 186.6434,-83.5633 186.6434,-186.6438 0,-103.0811 -83.5633,-186.6444 -186.6434,-186.6444 z m -119.9561,44.008 c -40.6264,34.2028 -66.4494,85.4282 -66.4494,142.6919 0,9.203 0.6779,18.2476 1.9669,27.094 14.4044,84.1532 87.6968,148.2029 175.9582,148.2029 98.6036,0 178.5376,-79.934 178.5376,-178.5372 0,-98.6031 -79.934,-178.5371 -178.5376,-178.5371 -42.1741,0 -80.9261,14.6323 -111.4757,39.0855 z"
       style="display:inline;fill:#fab932;fill-rule:evenodd"
       id="path194" />
    <path
       d="m 177.4804,144.6385 c -40.6264,34.2028 -66.4494,85.4282 -66.4494,142.6919 0,9.203 0.6779,18.2476 1.9669,27.094 14.4044,84.1532 87.6968,148.2029 175.9582,148.2029 98.6036,0 178.5376,-79.934 178.5376,-178.5372 0,-98.6031 -79.934,-178.5371 -178.5376,-178.5371 -42.1741,0 -80.9261,14.6323 -111.4757,39.0855 z m 119.9548,-23.5871 c 92.9793,0 168.3538,75.374 168.3538,168.3529 0,92.9789 -75.3745,168.3529 -168.3538,168.3529 -92.979,0 -168.3525,-75.374 -168.3525,-168.3529 0,-92.9789 75.3735,-168.3529 168.3525,-168.3529 z"
       style="display:inline;fill:#009444;fill-rule:evenodd"
       id="path196" />
    <path
       d="m 169.1237,341.0049 c 8.1699,15.2772 19.858,28.1795 33.9699,39.4456 -8.8148,-19.9365 9.2202,-36.7199 29.7941,-36.2514 -16.1123,1.387 -27.5125,13.7002 -26.7497,24.7781 11.3054,-10.1941 50.6256,8.0982 91.2972,53.9268 41.729,-47.0184 82.0287,-65.0476 92.1159,-53.0701 1.1288,-11.1984 -10.3693,-23.8461 -26.7127,-25.253 20.0219,-0.4559 37.6358,15.4271 30.4417,34.6546 13.4403,-10.9768 24.5905,-23.4995 32.4674,-38.2306 -24.8499,0 -49.6999,0 -74.5498,0 7.2739,10.7958 3.1775,27.5133 -17.2154,28.2969 -13.6515,0.5244 -20.939,-8.0016 -21.8277,-19.9398 L 299.8639,171.7258 h -4.8575 L 282.7166,349.362 c -0.8882,11.9373 -8.1752,20.4642 -21.8272,19.9398 -20.3942,-0.7836 -24.4884,-17.5011 -17.2149,-28.2969 -24.85,0 -49.7004,0 -74.5508,0 z M 297.4352,143.3593 c 14.1565,0 25.6384,11.4819 25.6384,25.6385 0,11.5297 -7.6156,21.2834 -18.0892,24.5078 l -0.8806,-9.6232 c 5.6807,-2.5492 9.6377,-8.2547 9.6377,-14.8846 0,-9.0058 -7.3001,-16.3064 -16.3063,-16.3064 -9.0054,0 -16.3059,7.3006 -16.3059,16.3064 0,6.6181 3.942,12.3146 9.6065,14.8711 l -0.9343,9.6115 c -10.4307,-3.2502 -18.0044,-12.9845 -18.0044,-24.4826 0,-14.1566 11.4815,-25.6385 25.6381,-25.6385 z m 62.7867,78.4608 -5.0158,5.4722 -46.6759,3.2411 -3.1829,-12.2198 z m -125.5731,-4e-4 5.0159,5.4722 46.6758,3.2411 3.1829,-12.2198 z"
       style="display:inline;fill:#ffffff;fill-rule:evenodd"
       id="path198" />
    <path
       d="m 196.1787,400.4228 c 39.5183,1.2722 77.9408,21.0346 101.2565,33.0111 -23.6046,-28.1465 -56.695,-52.2494 -82.9647,-59.0019 18.3799,9.0482 9.5949,22.2099 -18.2918,25.9908 z"
       style="display:inline;fill:#009444;fill-rule:evenodd"
       id="path200" />
    <path
       d="m 398.6929,400.4228 c -39.5189,1.2722 -77.9414,21.0346 -101.2577,33.0111 23.6058,-28.1465 56.6956,-52.2494 82.9659,-59.0019 -18.3805,9.0482 -9.595,22.2099 18.2918,25.9908 z"
       style="display:inline;fill:#fab932;fill-rule:evenodd"
       id="path202" />
  </g>
</svg>
